<svg width="1200" height="630" viewBox="0 0 1200 630" xmlns="http://www.w3.org/2000/svg">
  <defs>
    <radialGradient id="bgGlow" cx="50%" cy="35%" r="65%">
      <stop offset="0%" stop-color="#6366f1" stop-opacity="0.18"/>
      <stop offset="100%" stop-color="#0a0a0a" stop-opacity="0"/>
    </radialGradient>
    <linearGradient id="textGrad" x1="0%" y1="0%" x2="100%" y2="0%">
      <stop offset="0%" stop-color="#6366f1"/>
      <stop offset="100%" stop-color="#818cf8"/>
    </linearGradient>
    <linearGradient id="borderGrad" x1="0%" y1="0%" x2="100%" y2="100%">
      <stop offset="0%" stop-color="#6366f1" stop-opacity="0.5"/>
      <stop offset="50%" stop-color="#818cf8" stop-opacity="0.2"/>
      <stop offset="100%" stop-color="#6366f1" stop-opacity="0.5"/>
    </linearGradient>
  </defs>

  <!-- Background -->
  <rect width="1200" height="630" fill="#0a0a0a"/>
  <rect width="1200" height="630" fill="url(#bgGlow)"/>

  <!-- Border frame -->
  <rect x="32" y="32" width="1136" height="566" rx="20" fill="none" stroke="url(#borderGrad)" stroke-width="1.5"/>

  <!-- Accent dots -->
  <circle cx="80" cy="80" r="3" fill="#6366f1" opacity="0.5"/>
  <circle cx="1120" cy="80" r="3" fill="#6366f1" opacity="0.5"/>
  <circle cx="80" cy="550" r="3" fill="#6366f1" opacity="0.5"/>
  <circle cx="1120" cy="550" r="3" fill="#6366f1" opacity="0.5"/>

  <!-- Logo -->
  <svg x="380" y="108" width="440" height="104" viewBox="0 0 1400 330">
<path fill="#6164ef" d="M48.0 302.0 L106.0 302.0 L136.2 229.0 L100.3 229.0 L191.5 81.3 L207.5 87.8 L178.0 25.0 L48.0 302.0 Z M250.0 302.0 L308.0 302.0 L262.5 205.0 L224.4 240.2 L250.0 302.0 Z M239.8 156.6 L228.4 174.0 L247.9 174.0 L239.8 156.6 Z"/>
  <path fill="#6164ef" d="M196.0 95.0 L120.0 218.0 L172.0 218.0 L138.0 305.0 L268.0 185.0 L208.0 185.0 L252.0 118.0 L196.0 95.0 Z"/>
  <path d="M327.62 228.0 380.15 108.99999999999999H413.3L466.0 228.0H430.98L421.63 204.88H371.31L361.96 228.0ZM411.77 180.06 396.47 141.98 381.17 180.06Z M465.28000000000003 228.0 508.63 167.82 467.15 108.99999999999999H505.06L528.86 143.33999999999997L552.32 108.99999999999999H588.7L547.22 166.45999999999998L591.4200000000001 228.0H552.66L528.01 191.11L503.7 228.0Z M604.81 228.0V108.99999999999999H638.47V228.0Z M724.4499999999999 230.38Q710.17 230.38 698.0999999999999 225.79Q686.03 221.2 677.105 212.785Q668.18 204.37 663.25 193.15Q658.3199999999999 181.93 658.3199999999999 168.5Q658.3199999999999 155.07 663.25 143.85Q668.18 132.63 677.105 124.215Q686.03 115.8 698.0999999999999 111.21Q710.17 106.61999999999999 724.4499999999999 106.61999999999999Q738.9 106.61999999999999 750.885 111.21Q762.87 115.8 771.71 124.215Q780.55 132.63 785.5649999999999 143.85Q790.5799999999999 155.07 790.5799999999999 168.5Q790.5799999999999 181.93 785.5649999999999 193.235Q780.55 204.54 771.71 212.87Q762.87 221.2 750.885 225.79Q738.9 230.38 724.4499999999999 230.38ZM724.4499999999999 202.5Q731.25 202.5 737.115 200.12Q742.98 197.74 747.315 193.235Q751.65 188.73 754.115 182.44Q756.5799999999999 176.15 756.5799999999999 168.5Q756.5799999999999 160.68 754.115 154.475Q751.65 148.26999999999998 747.315 143.765Q742.98 139.26 737.115 136.88Q731.25 134.5 724.4499999999999 134.5Q717.65 134.5 711.785 136.88Q705.92 139.26 701.585 143.765Q697.25 148.26999999999998 694.785 154.475Q692.3199999999999 160.68 692.3199999999999 168.5Q692.3199999999999 176.15 694.785 182.44Q697.25 188.73 701.585 193.235Q705.92 197.74 711.785 200.12Q717.65 202.5 724.4499999999999 202.5Z M810.26 228.0V108.99999999999999H837.97L890.5 172.41V108.99999999999999H923.48V228.0H895.77L843.24 164.59V228.0Z" fill="#FFFFFF"/>
  <path d="M957.28 228.0V108.99999999999999H1013.55Q1033.27 108.99999999999999 1048.23 116.30999999999999Q1063.19 123.61999999999999 1071.605 136.88Q1080.02 150.14 1080.02 168.5Q1080.02 186.69 1071.605 200.035Q1063.19 213.38 1048.23 220.69Q1033.27 228.0 1013.55 228.0ZM990.94 201.14H1012.19Q1022.39 201.14 1029.955 197.315Q1037.52 193.49 1041.77 186.095Q1046.02 178.7 1046.02 168.5Q1046.02 158.13 1041.77 150.82Q1037.52 143.51 1029.955 139.685Q1022.39 135.86 1012.19 135.86H990.94Z M1099.7 228.0V108.99999999999999H1193.03V135.01H1133.02V155.07H1185.8899999999999V180.23H1133.02V201.99H1195.24V228.0Z M1252.49 228.0 1201.6599999999999 108.99999999999999H1238.04L1270.34 186.51999999999998L1303.32 108.99999999999999H1336.6399999999999L1285.6399999999999 228.0Z" fill="#818cf8"/>
  </svg>

  <!-- Divider line -->
  <line x1="440" y1="230" x2="760" y2="230" stroke="#6366f1" stroke-opacity="0.3" stroke-width="1"/>

  <!-- Tagline -->
  <text x="600" y="290" font-family="-apple-system, BlinkMacSystemFont, 'Segoe UI', sans-serif" font-size="30" font-weight="400" text-anchor="middle" fill="#a3a3a3" letter-spacing="0.5">Websites that bring you clients.</text>
  <text x="600" y="335" font-family="-apple-system, BlinkMacSystemFont, 'Segoe UI', sans-serif" font-size="30" font-weight="600" text-anchor="middle" fill="#e5e5e5">Not in months — in days.</text>

  <!-- Stats row -->
  <rect x="180" y="400" width="240" height="100" rx="12" fill="#ffffff" fill-opacity="0.03" stroke="#6366f1" stroke-opacity="0.2" stroke-width="1"/>
  <text x="300" y="450" font-family="-apple-system, BlinkMacSystemFont, 'Segoe UI', sans-serif" font-size="38" font-weight="700" text-anchor="middle" fill="url(#textGrad)">10+</text>
  <text x="300" y="480" font-family="-apple-system, BlinkMacSystemFont, 'Segoe UI', sans-serif" font-size="15" text-anchor="middle" fill="#737373">Projects shipped</text>

  <rect x="480" y="400" width="240" height="100" rx="12" fill="#ffffff" fill-opacity="0.03" stroke="#6366f1" stroke-opacity="0.2" stroke-width="1"/>
  <text x="600" y="450" font-family="-apple-system, BlinkMacSystemFont, 'Segoe UI', sans-serif" font-size="38" font-weight="700" text-anchor="middle" fill="url(#textGrad)">&lt;14 days</text>
  <text x="600" y="480" font-family="-apple-system, BlinkMacSystemFont, 'Segoe UI', sans-serif" font-size="15" text-anchor="middle" fill="#737373">Avg. delivery time</text>

  <rect x="780" y="400" width="240" height="100" rx="12" fill="#ffffff" fill-opacity="0.03" stroke="#6366f1" stroke-opacity="0.2" stroke-width="1"/>
  <text x="900" y="450" font-family="-apple-system, BlinkMacSystemFont, 'Segoe UI', sans-serif" font-size="38" font-weight="700" text-anchor="middle" fill="url(#textGrad)">4.2%</text>
  <text x="900" y="480" font-family="-apple-system, BlinkMacSystemFont, 'Segoe UI', sans-serif" font-size="15" text-anchor="middle" fill="#737373">Avg. conversion rate</text>

  <!-- URL hint -->
  <text x="600" y="575" font-family="-apple-system, BlinkMacSystemFont, 'Segoe UI', sans-serif" font-size="16" text-anchor="middle" fill="#525252" letter-spacing="1">axiondev.dev</text>
</svg>
